<svg width="117" height="60" viewBox="0 0 117 60" fill="none" xmlns="http://www.w3.org/2000/svg">
<path d="M20.5868 24.1667C20.3109 24.3955 19.7994 24.7045 19.0523 25.0935C18.3051 25.4826 17.3913 25.8259 16.3108 26.1234C15.2303 26.4209 14.0349 26.5582 12.7245 26.5353C10.7244 26.4896 8.93703 26.1291 7.36226 25.454C5.78749 24.7789 4.45416 23.8578 3.36216 22.6906C2.27015 21.5235 1.43682 20.1847 0.862045 18.6743C0.287329 17.1638 0 15.5505 0 13.8341C0 11.9117 0.293072 10.1496 0.879334 8.54762C1.46554 6.94561 2.30467 5.56109 3.39661 4.39393C4.48862 3.22677 5.79323 2.32283 7.31051 1.68205C8.8278 1.04127 10.5061 0.720878 12.3452 0.720878C14.0464 0.720878 15.5522 0.949736 16.8625 1.40745C18.1729 1.86511 19.2419 2.35713 20.0696 2.88351L18.104 7.58639C17.5292 7.1516 16.7648 6.6996 15.8108 6.23045C14.8567 5.7613 13.759 5.52673 12.5176 5.52673C11.5521 5.52673 10.6267 5.727 9.74165 6.12749C8.85657 6.52797 8.07493 7.09437 7.39678 7.82668C6.71857 8.55905 6.18405 9.41148 5.79323 10.3841C5.40241 11.3567 5.20703 12.4152 5.20703 13.5595C5.20703 14.7724 5.38518 15.8823 5.74154 16.8892C6.09785 17.8962 6.60939 18.7601 7.27605 19.481C7.94272 20.2019 8.74159 20.7569 9.67267 21.1458C10.6038 21.5349 11.6555 21.7295 12.828 21.7295C14.1843 21.7295 15.3452 21.512 16.3108 21.0772C17.2764 20.6424 18.012 20.1847 18.5178 19.7041L20.5868 24.1667V24.1667ZM20.8758 26.2607L32.3244 0H32.6002L44.0489 26.2607H38.2556L30.9451 7.79238L34.5658 5.32079L25.807 26.2607H20.8758ZM28.7036 17.1295H36.3245L38.0832 21.3175H27.1518L28.7036 17.1295ZM45.9241 0.995472L53.3381 19.1892L50.4415 18.6056L57.1658 0.995472H63.0971L51.5105 27.4279L39.924 0.995472H45.9241ZM65.6275 0.995472H70.6276V26.2607H65.6275V0.995472ZM72.4684 26.2607L83.917 0H84.1928L95.6415 26.2607H89.8482L82.5377 7.79238L86.1584 5.32079L77.3996 26.2607H72.4684ZM80.2962 17.1295H87.9171L89.6758 21.3175H78.7444L80.2962 17.1295ZM105.172 0.995472C106.758 0.995472 108.172 1.19575 109.414 1.59623C110.655 1.99672 111.695 2.56884 112.534 3.31264C113.373 4.05638 114.011 4.94889 114.448 5.99016C114.885 7.03142 115.103 8.2043 115.103 9.50879C115.103 10.5386 114.948 11.5685 114.638 12.5983C114.328 13.6281 113.822 14.5664 113.121 15.4131C112.419 16.2599 111.494 16.9407 110.345 17.4556C109.195 17.9705 107.77 18.228 106.069 18.228H102.482V26.2607H97.4822V0.995472H105.172ZM106.034 13.4221C106.793 13.4221 107.425 13.2962 107.931 13.0445C108.437 12.7928 108.833 12.4724 109.12 12.0833C109.408 11.6943 109.615 11.2881 109.741 10.8647C109.868 10.4413 109.931 10.0465 109.931 9.68042C109.931 9.40576 109.891 9.05679 109.81 8.63343C109.73 8.21002 109.563 7.78095 109.31 7.3461C109.057 6.91131 108.672 6.54512 108.155 6.24766C107.638 5.95014 106.942 5.80138 106.069 5.80138H102.482V13.4221H106.034V13.4221ZM110.724 16.5116L117 26.2607H111.172L104.758 16.649L110.724 16.5116Z" fill="#32295D"/>
<path d="M7.30088 49.1892C7.30088 49.9902 7.54227 50.7568 8.0251 51.4891C8.50786 52.2214 9.14581 52.8165 9.93894 53.2742C10.7321 53.7319 11.5999 53.9607 12.5424 53.9607C13.5769 53.9607 14.4965 53.7319 15.3012 53.2742C16.1058 52.8165 16.7437 52.2214 17.215 51.4891C17.6863 50.7568 17.9219 49.9902 17.9219 49.1892V33.2611H22.8531V49.2922C22.8531 51.1459 22.3933 52.7879 21.4737 54.2182C20.5542 55.6485 19.3127 56.7699 17.7495 57.5823C16.1862 58.3947 14.4505 58.8009 12.5424 58.8009C10.6574 58.8009 8.93889 58.3947 7.38715 57.5823C5.83535 56.7699 4.59971 55.6485 3.68011 54.2182C2.76052 52.7879 2.30078 51.1459 2.30078 49.2922V33.2611H7.30088V49.1892ZM49.7635 59.5562L30.5216 42.255L32.0044 43.0788L32.1078 58.5263H27.0387V32.2656H27.2456L46.0737 49.4981L44.9703 49.0175L44.8668 33.2611H49.9014V59.5562H49.7635ZM54.6043 33.2611H59.6045V58.5263H54.6043V33.2611ZM62.7556 45.928C62.7556 44.1888 63.089 42.541 63.7556 40.9849C64.4224 39.4287 65.3476 38.0499 66.5316 36.8484C67.7155 35.6469 69.0891 34.7029 70.6524 34.0163C72.2156 33.3298 73.8939 32.9865 75.687 32.9865C77.4572 32.9865 79.1239 33.3298 80.6872 34.0163C82.2504 34.7029 83.6356 35.6469 84.8425 36.8484C86.0494 38.0499 86.992 39.4287 87.6701 40.9849C88.3483 42.541 88.6874 44.1888 88.6874 45.928C88.6874 47.7131 88.3483 49.3837 87.6701 50.9399C86.992 52.4961 86.0494 53.8635 84.8425 55.0421C83.6356 56.2207 82.2504 57.1418 80.6872 57.8055C79.1239 58.4691 77.4572 58.8009 75.687 58.8009C73.8939 58.8009 72.2156 58.4691 70.6524 57.8055C69.0891 57.1418 67.7155 56.2207 66.5316 55.0421C65.3476 53.8635 64.4224 52.4961 63.7556 50.9399C63.089 49.3837 62.7556 47.7131 62.7556 45.928ZM67.9282 45.928C67.9282 47.0494 68.1293 48.0964 68.5316 49.0691C68.9339 50.0417 69.4972 50.8999 70.2213 51.6436C70.9455 52.3874 71.7846 52.9653 72.7387 53.3772C73.6927 53.7891 74.733 53.9951 75.8594 53.9951C76.94 53.9951 77.9457 53.7891 78.8768 53.3772C79.8079 52.9653 80.6182 52.3874 81.3079 51.6436C81.9976 50.8999 82.5378 50.0417 82.9286 49.0691C83.3195 48.0964 83.5148 47.0494 83.5148 45.928C83.5148 44.7838 83.3137 43.7196 82.9114 42.7356C82.5091 41.7515 81.9574 40.8876 81.2562 40.1438C80.555 39.4001 79.7331 38.8222 78.7906 38.4103C77.848 37.9983 76.825 37.7923 75.7215 37.7923C74.6181 37.7923 73.595 37.9983 72.6525 38.4103C71.7099 38.8222 70.8823 39.4001 70.1696 40.1438C69.457 40.8876 68.9052 41.7515 68.5144 42.7356C68.1236 43.7196 67.9282 44.7838 67.9282 45.928ZM114.563 59.5562L95.3214 42.255L96.8042 43.0788L96.9077 58.5263H91.8385V32.2656H92.0455L110.874 49.4981L109.77 49.0175L109.667 33.2611H114.701V59.5562H114.563Z" fill="#32295D"/>
<path fill-rule="evenodd" clip-rule="evenodd" d="M12.6086 44.2686C14.9834 44.2686 16.9086 46.185 16.9086 48.5491C16.9086 50.9132 14.9834 52.8296 12.6086 52.8296C10.2337 52.8296 8.30859 50.9132 8.30859 48.5491C8.30859 46.185 10.2338 44.2686 12.6086 44.2686Z" fill="#16AEA6"/>
<path fill-rule="evenodd" clip-rule="evenodd" d="M13.9513 45.2903C14.8208 45.6554 15.1659 46.0083 14.8928 46.3121C14.6197 46.6159 14.3143 46.1636 13.7419 45.9486C13.2653 45.7697 12.5704 45.7927 12.7095 45.2945C12.8174 44.9078 13.729 45.197 13.9513 45.2903Z" fill="#32295D"/>
</svg>
