<svg width="122" height="104" viewBox="0 0 122 104" fill="none" xmlns="http://www.w3.org/2000/svg">
<path fill-rule="evenodd" clip-rule="evenodd" d="M19.9806 53.7209H43.1612V37.9884H19.9806V15.7326H52.9809V0H0V86.2093H19.9806V53.7209ZM91.1738 86.3533C103.329 86.3533 113.402 83.45 121.395 77.6433V35.3377H89.0508V51.6378H102.663V67.4402C99.1661 68.5186 95.6279 69.0578 92.048 69.0578C84.1389 69.0578 77.8949 66.7351 73.316 62.0898C68.7371 57.4445 66.4476 51.1816 66.4476 43.3011C66.4476 35.5036 68.7787 29.2822 73.4409 24.6368C78.1031 19.9086 84.3887 17.5444 92.2977 17.5444C100.706 17.5444 108.907 19.8256 116.899 24.388V5.22599C109.989 1.742 101.789 0 92.2977 0C78.8107 0 67.6548 3.94023 58.83 11.8207C50.0884 19.7012 45.7176 30.1946 45.7176 43.3011C45.7176 56.5735 49.9219 67.0669 58.3304 74.7815C66.739 82.496 77.6868 86.3533 91.1738 86.3533Z" fill="#202020"/>
<path d="M7.59683 99.138H3.47233V103.843H1.23382V92.0548H8.19612V93.8562H3.47233V97.3366H7.59683V99.138Z" fill="#202020"/>
<path d="M21.3103 97.9137C21.3103 99.7326 20.7992 101.196 19.7769 102.304C18.7663 103.411 17.4091 103.965 15.7052 103.965C14.0014 103.965 12.6383 103.411 11.616 102.304C10.5937 101.196 10.0825 99.7326 10.0825 97.9137C10.0825 96.0832 10.5878 94.6141 11.5984 93.5064C12.6207 92.3988 13.9838 91.845 15.6876 91.845C17.415 91.845 18.7839 92.3988 19.7945 93.5064C20.805 94.6024 21.3103 96.0715 21.3103 97.9137ZM12.462 97.9137C12.462 99.1496 12.7558 100.129 13.3433 100.852C13.9309 101.575 14.7182 101.936 15.7052 101.936C16.704 101.936 17.4913 101.581 18.0671 100.869C18.6429 100.147 18.9308 99.1613 18.9308 97.9137C18.9308 96.6662 18.6429 95.6809 18.0671 94.9581C17.4913 94.2352 16.6982 93.8737 15.6876 93.8737C14.6888 93.8737 13.9015 94.2352 13.3257 94.9581C12.7499 95.6809 12.462 96.6662 12.462 97.9137Z" fill="#202020"/>
<path d="M27.491 93.8737H26.0457V97.7214H27.5263C28.2078 97.7214 28.719 97.5523 29.0597 97.2142C29.4005 96.8644 29.5709 96.3805 29.5709 95.7626C29.5709 95.1563 29.3887 94.6899 29.0245 94.3634C28.672 94.0369 28.1608 93.8737 27.491 93.8737ZM26.0457 103.843H23.8248V92.0548H27.491C28.8423 92.0548 29.8999 92.393 30.6637 93.0692C31.4392 93.7455 31.827 94.6491 31.827 95.78C31.8153 96.6195 31.6096 97.3308 31.2101 97.9137C30.8106 98.4851 30.2642 98.9106 29.5709 99.1905L32.6202 103.843H29.9587L27.2619 99.5402H26.0457V103.843Z" fill="#202020"/>
<path d="M39.5449 103.843H34.733V92.0548H38.9456C40.2147 92.0548 41.2017 92.3521 41.9068 92.9468C42.6118 93.5414 42.9643 94.3109 42.9643 95.2554C42.9643 95.8966 42.7881 96.4563 42.4356 96.9343C42.083 97.4007 41.6306 97.7097 41.0784 97.8613C41.7129 98.0128 42.2358 98.3218 42.6471 98.7882C43.0584 99.2429 43.264 99.8667 43.264 100.66C43.264 101.592 42.935 102.356 42.2769 102.951C41.6189 103.545 40.7082 103.843 39.5449 103.843ZM38.6636 93.8562H36.9539V97.0218H38.2934C39.0925 97.0218 39.6918 96.8644 40.0913 96.5496C40.4908 96.2348 40.6906 95.8325 40.6906 95.3428C40.6906 94.8881 40.5202 94.5266 40.1794 94.2585C39.8504 93.9903 39.3451 93.8562 38.6636 93.8562ZM38.7693 98.7882H36.9539V102.041H38.8575C40.2793 102.041 40.9902 101.505 40.9902 100.432C40.9902 99.3362 40.2499 98.7882 38.7693 98.7882Z" fill="#202020"/>
<path d="M46.6446 96.0249H44.8468L46.5036 91.705H48.9184L46.6446 96.0249Z" fill="#202020"/>
<path d="M57.5265 100.537C57.5265 101.586 57.1446 102.426 56.3808 103.056C55.6288 103.674 54.6358 103.983 53.402 103.983C52.0624 103.983 50.952 103.732 50.0707 103.23V100.974C51.0812 101.697 52.1858 102.059 53.3844 102.059C53.9249 102.059 54.3597 101.93 54.6887 101.674C55.0177 101.406 55.1822 101.05 55.1822 100.607C55.1822 100.397 55.1411 100.211 55.0588 100.047C54.9766 99.8842 54.8062 99.721 54.5477 99.5577C54.3009 99.3945 54.107 99.2779 53.966 99.2079C53.8368 99.138 53.5606 99.0097 53.1376 98.8232C53.0201 98.7649 52.932 98.7241 52.8732 98.7008C52.4384 98.5025 52.0859 98.3277 51.8157 98.1761C51.5454 98.0128 51.2516 97.7971 50.9344 97.529C50.6171 97.2608 50.3762 96.9402 50.2117 96.5671C50.0589 96.194 49.9825 95.7684 49.9825 95.2904C49.9825 94.2876 50.3527 93.4831 51.093 92.8768C51.845 92.2705 52.838 91.9674 54.0718 91.9674C55.1881 91.9674 56.1517 92.1598 56.9625 92.5445V94.6782C56.0812 94.1535 55.1411 93.8912 54.1423 93.8912C53.59 93.8912 53.1552 94.0136 52.838 94.2585C52.5324 94.5033 52.3797 94.8181 52.3797 95.2029C52.3797 95.5877 52.5442 95.9083 52.8732 96.1648C53.214 96.4097 53.7193 96.6837 54.3891 96.9868C54.8591 97.1967 55.241 97.3832 55.5348 97.5465C55.8285 97.698 56.1458 97.9137 56.4866 98.1936C56.8391 98.4734 57.0976 98.8115 57.2621 99.2079C57.4384 99.5927 57.5265 100.036 57.5265 100.537Z" fill="#202020"/>
<path d="M74.6553 102.828C73.5742 103.598 72.2229 103.983 70.6013 103.983C68.7212 103.983 67.1995 103.44 66.0362 102.356C64.8846 101.272 64.3088 99.7968 64.3088 97.9312C64.3088 96.1123 64.9022 94.6432 66.089 93.5239C67.2876 92.4046 68.7976 91.845 70.6189 91.845C71.9703 91.845 73.1277 92.0956 74.0913 92.597V94.8531C73.0102 94.2118 71.8645 93.8912 70.6542 93.8912C69.4674 93.8912 68.5097 94.2585 67.7811 94.993C67.0526 95.7276 66.6883 96.707 66.6883 97.9312C66.6883 99.1788 67.0408 100.164 67.7459 100.887C68.4627 101.598 69.4439 101.954 70.6895 101.954C71.3005 101.954 71.8939 101.849 72.4697 101.639V98.8582H70.284V96.9693H74.6553V102.636H74.6377L74.6553 102.828Z" fill="#202020"/>
<path d="M81.2009 93.8737H79.7556V97.7214H81.2362C81.9177 97.7214 82.4289 97.5523 82.7696 97.2142C83.1104 96.8644 83.2808 96.3805 83.2808 95.7626C83.2808 95.1563 83.0986 94.6899 82.7344 94.3634C82.3819 94.0369 81.8707 93.8737 81.2009 93.8737ZM79.7556 103.843H77.5347V92.0548H81.2009C82.5522 92.0548 83.6098 92.393 84.3736 93.0692C85.1491 93.7455 85.5369 94.6491 85.5369 95.78C85.5252 96.6195 85.3195 97.3308 84.92 97.9137C84.5205 98.4851 83.9741 98.9106 83.2808 99.1905L86.3301 103.843H83.6686L80.9718 99.5402H79.7556V103.843Z" fill="#202020"/>
<path d="M99.1948 97.9137C99.1948 99.7326 98.6836 101.196 97.6613 102.304C96.6507 103.411 95.2935 103.965 93.5897 103.965C91.8858 103.965 90.5228 103.411 89.5004 102.304C88.4781 101.196 87.967 99.7326 87.967 97.9137C87.967 96.0832 88.4723 94.6141 89.4828 93.5064C90.5051 92.3988 91.8682 91.845 93.5721 91.845C95.2994 91.845 96.6684 92.3988 97.6789 93.5064C98.6895 94.6024 99.1948 96.0715 99.1948 97.9137ZM90.3465 97.9137C90.3465 99.1496 90.6403 100.129 91.2278 100.852C91.8153 101.575 92.6026 101.936 93.5897 101.936C94.5885 101.936 95.3758 101.581 95.9516 100.869C96.5274 100.147 96.8153 99.1613 96.8153 97.9137C96.8153 96.6662 96.5274 95.6809 95.9516 94.9581C95.3758 94.2352 94.5826 93.8737 93.5721 93.8737C92.5733 93.8737 91.786 94.2352 91.2102 94.9581C90.6344 95.6809 90.3465 96.6662 90.3465 97.9137Z" fill="#202020"/>
<path d="M110.928 99.3129C110.928 100.84 110.511 102.006 109.676 102.811C108.854 103.604 107.72 104 106.274 104C104.864 104 103.736 103.609 102.89 102.828C102.056 102.035 101.639 100.904 101.639 99.4353V92.0548H103.86V99.4178C103.86 100.316 104.083 100.969 104.529 101.377C104.976 101.773 105.558 101.971 106.274 101.971C107.896 101.971 108.707 101.091 108.707 99.3304V92.0548H110.928V99.3129Z" fill="#202020"/>
<path d="M117.629 99.8376H116.078V103.843H113.857V92.0548H117.576C118.915 92.0548 119.985 92.4163 120.784 93.1392C121.595 93.8621 122 94.789 122 95.92C122 97.1209 121.583 98.077 120.749 98.7882C119.926 99.4878 118.886 99.8376 117.629 99.8376ZM117.382 93.8562H116.078V98.0537H117.329C118.14 98.0537 118.745 97.8613 119.145 97.4765C119.544 97.0917 119.744 96.5729 119.744 95.92C119.744 95.2787 119.544 94.7773 119.145 94.4159C118.745 94.0428 118.158 93.8562 117.382 93.8562Z" fill="#202020"/>
</svg>
